<?xml version="1.0" encoding="utf-8"?>
<!-- Generator: Adobe Illustrator 24.1.0, SVG Export Plug-In . SVG Version: 6.00 Build 0)  -->
<svg version="1.1" id="Layer_1" xmlns="http://www.w3.org/2000/svg" xmlns:xlink="http://www.w3.org/1999/xlink" x="0px" y="0px"
	 viewBox="0 0 512 512" style="enable-background:new 0 0 512 512;" xml:space="preserve">
<g>
	<g>
		<g>
			<path d="M77.9,339l31.5-13.1c4.4-1.8,6.4-6.8,4.6-11.2c-1.4-3.3-4.5-5.3-7.9-5.3c-1.1,0-2.2,0.2-3.3,0.7l-31.5,13.1
				c-4.4,1.8-6.4,6.8-4.6,11.2C68.6,338.7,73.6,340.8,77.9,339z"/>
			<path d="M247.2,443.7c-4.7,0-8.5,3.8-8.5,8.5c0,4.7,3.8,8.5,8.5,8.5h0.1c4.7,0,8.5-3.8,8.5-8.5
				C255.8,447.6,251.9,443.7,247.2,443.7z"/>
			<path d="M273.1,332.8c0-14.1-11.5-25.6-25.6-25.6c-14.1,0-25.6,11.5-25.6,25.6c0,14.1,11.5,25.6,25.6,25.6
				C261.6,358.4,273.1,346.9,273.1,332.8z M238.9,332.8c0-4.7,3.8-8.5,8.5-8.5c4.7,0,8.5,3.8,8.5,8.5c0,4.7-3.8,8.5-8.5,8.5
				C242.8,341.3,238.9,337.5,238.9,332.8z"/>
			<path d="M136.5,256c0-65.9,53.6-119.5,119.5-119.5c21.4,0,42.3,5.7,60.6,16.5c4.1,2.4,9.3,1,11.7-3c2.4-4.1,1.1-9.3-3-11.7
				c-20.9-12.3-44.9-18.9-69.3-18.9c-75.3,0-136.5,61.3-136.5,136.5c0,33.6,12.2,65.3,34.3,90.2L2.5,497.4c-3.3,3.3-3.3,8.7,0,12.1
				c3.3,3.3,8.7,3.3,12.1,0l331.7-331.7c33.5,38.5,38.6,94.2,12.9,138.5c-7.4-5.8-16.7-9.1-26.4-9.1c-23.5,0-42.7,19.1-42.7,42.7
				c0,6.7,1.7,13.2,4.7,19c-12.4,4.3-25.5,6.6-38.8,6.6c-21.2,0-42.1-5.6-60.3-16.3c-4.1-2.4-9.3-1-11.7,3c-2.4,4.1-1,9.3,3,11.7
				c20.8,12.2,44.7,18.7,68.9,18.7c18.8,0,37.2-4,54.2-11.3c0.4-0.1,0.7-0.3,1-0.4c11.4-5.1,22.2-11.6,31.9-19.7
				c3.6-3,4.1-8.4,1.1-12c-1.7-2-4.1-3.1-6.6-3.1c-1.9,0-3.8,0.6-5.4,2c-6.7,5.6-14.1,10.3-21.8,14.3c-2.1-3.8-3.3-8-3.3-12.3
				c0-14.1,11.5-25.6,25.6-25.6c8.1,0,15.7,3.8,20.5,10.3c1.3,2,3.4,3.5,5.8,3.9c3.2,0.5,6.5-0.8,8.4-3.5
				c36.7-52.4,32.4-122.1-9.2-169.1L509.5,14.6c3.3-3.3,3.3-8.7,0-12.1c-1.7-1.7-3.8-2.5-6-2.5c-2.2,0-4.4,0.8-6,2.5L165.8,334.2
				C146.9,312.4,136.5,285,136.5,256z"/>
			<path d="M324.3,273.1c-7.2,0-13.7-4.6-16.1-11.4c-1.6-4.5-6.4-6.8-10.9-5.2c-4.4,1.6-6.8,6.4-5.2,10.9
				c4.8,13.6,17.7,22.8,32.2,22.8c18.8,0,34.1-15.3,34.1-34.1c0-14.5-9.2-27.4-22.8-32.2c-0.9-0.3-1.9-0.5-2.8-0.5
				c-3.5,0-6.8,2.2-8,5.7c-1.6,4.4,0.8,9.3,5.2,10.9c6.8,2.4,11.4,8.9,11.4,16.1C341.3,265.4,333.7,273.1,324.3,273.1z"/>
			<path d="M469.3,204.8c-4.7,0-8.5,3.8-8.5,8.5v8.5h-8.5c-4.7,0-8.5,3.8-8.5,8.5c0,4.7,3.8,8.5,8.5,8.5h8.5v8.5
				c0,4.7,3.8,8.5,8.5,8.5c4.7,0,8.5-3.8,8.5-8.5v-8.5h8.5c4.7,0,8.5-3.8,8.5-8.5c0-4.7-3.8-8.5-8.5-8.5h-8.5v-8.5
				C477.9,208.6,474.1,204.8,469.3,204.8z"/>
			<path d="M503.5,409.6h-25.6V384c0-4.7-3.8-8.5-8.5-8.5c-4.7,0-8.5,3.8-8.5,8.5v25.6h-25.6c-4.7,0-8.5,3.8-8.5,8.5
				c0,4.7,3.8,8.5,8.5,8.5h25.6v25.6c0,4.7,3.8,8.5,8.5,8.5c4.7,0,8.5-3.8,8.5-8.5v-25.6h25.6c4.7,0,8.5-3.8,8.5-8.5
				C512,413.4,508.2,409.6,503.5,409.6z"/>
			<path d="M332.8,477.9h-8.5v-8.5c0-4.7-3.8-8.5-8.5-8.5c-4.7,0-8.5,3.8-8.5,8.5v8.5h-8.5c-4.7,0-8.5,3.8-8.5,8.5
				c0,4.7,3.8,8.5,8.5,8.5h8.5v8.5c0,4.7,3.8,8.5,8.5,8.5c4.7,0,8.5-3.8,8.5-8.5v-8.5h8.5c4.7,0,8.5-3.8,8.5-8.5
				C341.3,481.7,337.5,477.9,332.8,477.9z"/>
			<path d="M434.9,358.4L434.9,358.4c4.8,0,8.6-3.8,8.6-8.5c0-4.7-3.9-8.5-8.6-8.5c-4.7,0-8.5,3.8-8.5,8.5
				C426.4,354.6,430.2,358.4,434.9,358.4z"/>
			<path d="M160,46.4c1.8,4.4,6.8,6.4,11.2,4.6c4.4-1.8,6.4-6.8,4.6-11.2L161.5,5.8c-1.4-3.3-4.5-5.2-7.9-5.2
				c-1.1,0-2.2,0.2-3.3,0.7C146,3,143.9,8,145.7,12.4L160,46.4z"/>
			<path d="M71.4,188.8l31.5,13.1c4.3,1.8,9.4-0.3,11.1-4.6c1.8-4.4-0.3-9.4-4.6-11.2L77.9,173c-1.1-0.4-2.2-0.6-3.3-0.6
				c-3.3,0-6.5,2-7.9,5.3C65,182,67.1,187,71.4,188.8z"/>
			<path d="M132.3,146.1c3.3,3.3,8.7,3.3,12.1,0c3.3-3.3,3.3-8.7,0-12.1L96.1,85.8c-1.7-1.7-3.8-2.5-6-2.5c-2.2,0-4.4,0.8-6,2.5
				c-3.3,3.3-3.3,8.7,0,12.1L132.3,146.1z"/>
			<path d="M11.8,366.3l34.6-14.2c4.4-1.8,6.4-6.8,4.7-11.1c-1.4-3.3-4.5-5.3-7.9-5.3c-1.1,0-2.2,0.2-3.2,0.6L5.3,350.5
				c-4.4,1.8-6.4,6.8-4.6,11.1C2.4,366,7.4,368.1,11.8,366.3z"/>
			<path d="M102.4,256c0-4.7-3.8-8.5-8.5-8.5H25.6c-4.7,0-8.5,3.8-8.5,8.5c0,4.7,3.8,8.5,8.5,8.5h68.3
				C98.6,264.5,102.4,260.7,102.4,256z"/>
			<path d="M5.3,161.5l34.6,14.2c4.3,1.8,9.4-0.3,11.1-4.7c1.8-4.4-0.3-9.3-4.7-11.1l-34.6-14.2c-1.1-0.4-2.2-0.6-3.2-0.6
				c-3.3,0-6.5,2-7.9,5.3C-1.1,154.7,0.9,159.7,5.3,161.5z"/>
			<path d="M173,77.9l13.1,31.5c1.8,4.4,6.8,6.4,11.2,4.6c4.3-1.8,6.4-6.8,4.6-11.2l-13.1-31.5c-1.4-3.3-4.5-5.3-7.9-5.3
				c-1.1,0-2.2,0.2-3.3,0.7C173.3,68.6,171.2,73.6,173,77.9z"/>
			<path d="M169.4,218.8c-0.9-0.3-1.8-0.4-2.6-0.4c-3.6,0-6.9,2.3-8.1,5.9c-5.6,17.1-6.5,35.5-2.8,53.1c1,4.6,5.5,7.6,10.1,6.6
				c4.6-1,7.5-5.5,6.6-10.1c-3.1-14.7-2.3-30,2.3-44.3C176.3,225.1,173.8,220.2,169.4,218.8z"/>
			<path d="M340.9,51c4.3,1.8,9.4-0.3,11.1-4.6l14.2-34.6c1.8-4.4-0.3-9.4-4.7-11.1c-1.1-0.4-2.2-0.6-3.2-0.6c-3.3,0-6.5,2-7.9,5.3
				l-14.2,34.6C334.5,44.3,336.6,49.2,340.9,51z"/>
			<path d="M256,102.4c4.7,0,8.5-3.8,8.5-8.5V25.6c0-4.7-3.8-8.5-8.5-8.5c-4.7,0-8.5,3.8-8.5,8.5v68.3
				C247.5,98.6,251.3,102.4,256,102.4z"/>
			<path d="M314.8,114.1c4.3,1.8,9.4-0.3,11.2-4.6L339,77.9c1.8-4.4-0.3-9.4-4.6-11.2c-1.1-0.4-2.2-0.7-3.3-0.7
				c-3.3,0-6.5,2-7.9,5.3L310.2,103C308.3,107.3,310.4,112.3,314.8,114.1z"/>
		</g>
	</g>
</g>
</svg>
