<?xml version="1.0" encoding="utf-8"?>
<!-- Generator: Adobe Illustrator 24.1.0, SVG Export Plug-In . SVG Version: 6.00 Build 0)  -->
<svg version="1.1" id="Layer_1" xmlns="http://www.w3.org/2000/svg" xmlns:xlink="http://www.w3.org/1999/xlink" x="0px" y="0px"
	 viewBox="0 0 512 512" style="enable-background:new 0 0 512 512;" xml:space="preserve">
<style type="text/css">
	.st0{fill:#FFFFFF;}
</style>
<g>
	<g>
		<g>
			<path class="st0" d="M434.1,173l-31.5,13.1c-4.4,1.8-6.4,6.8-4.6,11.2c1.4,3.3,4.5,5.3,7.9,5.3c1.1,0,2.2-0.2,3.3-0.7l31.5-13.1
				c4.4-1.8,6.4-6.8,4.6-11.2C443.4,173.3,438.4,171.2,434.1,173z"/>
			<path class="st0" d="M264.8,68.3c4.7,0,8.5-3.8,8.5-8.5c0-4.7-3.8-8.5-8.5-8.5h-0.1c-4.7,0-8.5,3.8-8.5,8.5
				C256.2,64.4,260.1,68.3,264.8,68.3z"/>
			<path class="st0" d="M238.9,179.2c0,14.1,11.5,25.6,25.6,25.6c14.1,0,25.6-11.5,25.6-25.6c0-14.1-11.5-25.6-25.6-25.6
				C250.4,153.6,238.9,165.1,238.9,179.2z M273.1,179.2c0,4.7-3.8,8.5-8.5,8.5c-4.7,0-8.5-3.8-8.5-8.5c0-4.7,3.8-8.5,8.5-8.5
				C269.2,170.7,273.1,174.5,273.1,179.2z"/>
			<path class="st0" d="M375.5,256c0,65.9-53.6,119.5-119.5,119.5c-21.4,0-42.3-5.7-60.6-16.5c-4.1-2.4-9.3-1-11.7,3
				c-2.4,4.1-1.1,9.3,3,11.7c20.9,12.3,44.9,18.9,69.3,18.9c75.3,0,136.5-61.3,136.5-136.5c0-33.6-12.2-65.3-34.3-90.2L509.5,14.6
				c3.3-3.3,3.3-8.7,0-12.1c-3.3-3.3-8.7-3.3-12.1,0L165.7,334.2c-33.5-38.5-38.6-94.2-12.9-138.5c7.4,5.8,16.7,9.1,26.4,9.1
				c23.5,0,42.7-19.1,42.7-42.7c0-6.7-1.7-13.2-4.7-19c12.4-4.3,25.5-6.6,38.8-6.6c21.2,0,42.1,5.6,60.3,16.3c4.1,2.4,9.3,1,11.7-3
				c2.4-4.1,1-9.3-3-11.7c-20.8-12.2-44.7-18.7-68.9-18.7c-18.8,0-37.2,4-54.2,11.3c-0.4,0.1-0.7,0.3-1,0.4
				c-11.4,5.1-22.2,11.6-31.9,19.7c-3.6,3-4.1,8.4-1.1,12c1.7,2,4.1,3.1,6.6,3.1c1.9,0,3.8-0.6,5.4-2c6.7-5.6,14.1-10.3,21.8-14.3
				c2.1,3.8,3.3,8,3.3,12.3c0,14.1-11.5,25.6-25.6,25.6c-8.1,0-15.7-3.8-20.5-10.3c-1.3-2-3.4-3.5-5.8-3.9c-3.2-0.5-6.5,0.8-8.4,3.5
				c-36.7,52.4-32.4,122.1,9.2,169.1L2.5,497.4c-3.3,3.3-3.3,8.7,0,12.1c1.7,1.7,3.8,2.5,6,2.5s4.4-0.8,6-2.5l331.6-331.7
				C365.1,199.6,375.5,227,375.5,256z"/>
			<path class="st0" d="M187.7,238.9c7.2,0,13.7,4.6,16.1,11.4c1.6,4.5,6.4,6.8,10.9,5.2c4.4-1.6,6.8-6.4,5.2-10.9
				c-4.8-13.6-17.7-22.8-32.2-22.8c-18.8,0-34.1,15.3-34.1,34.1c0,14.5,9.2,27.4,22.8,32.2c0.9,0.3,1.9,0.5,2.8,0.5
				c3.5,0,6.8-2.2,8-5.7c1.6-4.4-0.8-9.3-5.2-10.9c-6.8-2.4-11.4-8.9-11.4-16.1C170.7,246.6,178.3,238.9,187.7,238.9z"/>
			<path class="st0" d="M42.7,307.2c4.7,0,8.5-3.8,8.5-8.5v-8.5h8.5c4.7,0,8.5-3.8,8.5-8.5c0-4.7-3.8-8.5-8.5-8.5h-8.5v-8.5
				c0-4.7-3.8-8.5-8.5-8.5c-4.7,0-8.5,3.8-8.5,8.5v8.5h-8.5c-4.7,0-8.5,3.8-8.5,8.5c0,4.7,3.8,8.5,8.5,8.5h8.5v8.5
				C34.1,303.4,38,307.2,42.7,307.2z"/>
			<path class="st0" d="M8.5,102.4h25.6V128c0,4.7,3.8,8.5,8.5,8.5c4.7,0,8.5-3.8,8.5-8.5v-25.6h25.6c4.7,0,8.5-3.8,8.5-8.5
				c0-4.7-3.8-8.5-8.5-8.5H51.2V59.7c0-4.7-3.8-8.5-8.5-8.5c-4.7,0-8.5,3.8-8.5,8.5v25.6H8.5c-4.7,0-8.5,3.8-8.5,8.5
				C0,98.6,3.8,102.4,8.5,102.4z"/>
			<path class="st0" d="M179.2,34.1h8.5v8.5c0,4.7,3.8,8.5,8.5,8.5c4.7,0,8.5-3.8,8.5-8.5v-8.5h8.5c4.7,0,8.5-3.8,8.5-8.5
				c0-4.7-3.8-8.5-8.5-8.5h-8.5V8.5c0-4.7-3.8-8.5-8.5-8.5c-4.7,0-8.5,3.8-8.5,8.5v8.5h-8.5c-4.7,0-8.5,3.8-8.5,8.5
				C170.7,30.3,174.5,34.1,179.2,34.1z"/>
			<path class="st0" d="M77.1,153.6L77.1,153.6c-4.8,0-8.6,3.8-8.6,8.5c0,4.7,3.9,8.5,8.6,8.5c4.7,0,8.5-3.8,8.5-8.5
				C85.6,157.4,81.8,153.6,77.1,153.6z"/>
			<path class="st0" d="M352,465.6c-1.8-4.4-6.8-6.4-11.2-4.6c-4.4,1.8-6.4,6.8-4.6,11.2l14.2,34.1c1.4,3.3,4.5,5.2,7.9,5.2
				c1.1,0,2.2-0.2,3.3-0.7c4.4-1.8,6.4-6.8,4.6-11.2L352,465.6z"/>
			<path class="st0" d="M440.6,323.2L409,310.2c-4.3-1.8-9.4,0.3-11.1,4.6c-1.8,4.4,0.3,9.4,4.6,11.2l31.5,13.1
				c1.1,0.4,2.2,0.6,3.3,0.6c3.3,0,6.5-2,7.9-5.3C447,330,444.9,325,440.6,323.2z"/>
			<path class="st0" d="M379.7,365.9c-3.3-3.3-8.7-3.3-12.1,0c-3.3,3.3-3.3,8.7,0,12.1l48.3,48.3c1.7,1.7,3.8,2.5,6,2.5
				c2.2,0,4.4-0.8,6-2.5c3.3-3.3,3.3-8.7,0-12.1L379.7,365.9z"/>
			<path class="st0" d="M500.2,145.7l-34.6,14.2c-4.4,1.8-6.4,6.8-4.7,11.1c1.4,3.3,4.5,5.3,7.9,5.3c1.1,0,2.2-0.2,3.2-0.6
				l34.6-14.2c4.4-1.8,6.4-6.8,4.6-11.1C509.6,146,504.6,143.9,500.2,145.7z"/>
			<path class="st0" d="M409.6,256c0,4.7,3.8,8.5,8.5,8.5h68.3c4.7,0,8.5-3.8,8.5-8.5c0-4.7-3.8-8.5-8.5-8.5h-68.3
				C413.4,247.5,409.6,251.3,409.6,256z"/>
			<path class="st0" d="M506.7,350.5l-34.6-14.2c-4.3-1.8-9.4,0.3-11.1,4.7c-1.8,4.4,0.3,9.3,4.7,11.1l34.6,14.2
				c1.1,0.4,2.2,0.6,3.2,0.6c3.3,0,6.5-2,7.9-5.3C513.1,357.3,511.1,352.3,506.7,350.5z"/>
			<path class="st0" d="M339,434.1l-13.1-31.5c-1.8-4.4-6.8-6.4-11.2-4.6c-4.3,1.8-6.4,6.8-4.6,11.2l13.1,31.5
				c1.4,3.3,4.5,5.3,7.9,5.3c1.1,0,2.2-0.2,3.3-0.7C338.7,443.4,340.8,438.4,339,434.1z"/>
			<path class="st0" d="M342.6,293.2c0.9,0.3,1.8,0.4,2.6,0.4c3.6,0,6.9-2.3,8.1-5.9c5.6-17.1,6.5-35.5,2.8-53.1
				c-1-4.6-5.5-7.6-10.1-6.6c-4.6,1-7.5,5.5-6.6,10.1c3.1,14.7,2.3,30-2.3,44.3C335.7,286.9,338.2,291.8,342.6,293.2z"/>
			<path class="st0" d="M171.1,461c-4.3-1.8-9.4,0.3-11.1,4.6l-14.2,34.6c-1.8,4.4,0.3,9.4,4.7,11.1c1.1,0.4,2.2,0.6,3.2,0.6
				c3.3,0,6.5-2,7.9-5.3l14.2-34.6C177.5,467.7,175.4,462.8,171.1,461z"/>
			<path class="st0" d="M256,409.6c-4.7,0-8.5,3.8-8.5,8.5v68.3c0,4.7,3.8,8.5,8.5,8.5c4.7,0,8.5-3.8,8.5-8.5v-68.3
				C264.5,413.4,260.7,409.6,256,409.6z"/>
			<path class="st0" d="M197.2,397.9c-4.3-1.8-9.4,0.3-11.2,4.6L173,434.1c-1.8,4.4,0.3,9.4,4.6,11.2c1.1,0.4,2.2,0.7,3.3,0.7
				c3.3,0,6.5-2,7.9-5.3l13.1-31.5C203.7,404.7,201.6,399.7,197.2,397.9z"/>
		</g>
	</g>
</g>
</svg>
